<?xml version="1.0" encoding="utf-8"?>
<!-- Generator: Adobe Illustrator 25.0.1, SVG Export Plug-In . SVG Version: 6.00 Build 0)  -->
<svg version="1.1" id="Layer_1" xmlns="http://www.w3.org/2000/svg" xmlns:xlink="http://www.w3.org/1999/xlink" x="0px" y="0px"
	 viewBox="0 0 595.28 841.89" style="enable-background:new 0 0 595.28 841.89;" xml:space="preserve">
<style type="text/css">
	.st0{fill:#FFFFFF;stroke:#000000;stroke-miterlimit:10;}
	.st1{fill:#BE1E2D;stroke:#000000;stroke-miterlimit:10;}
	.st2{fill:#FFF200;stroke:#000000;stroke-miterlimit:10;}
	.st3{fill:#1C75BC;stroke:#000000;stroke-miterlimit:10;}
</style>
<circle class="st0" cx="100" cy="335.53" r="12.06"/>
<circle class="st1" cx="100" cy="365.59" r="12.06"/>
<circle class="st2" cx="100" cy="395.66" r="12.06"/>
<circle class="st2" cx="100" cy="425.72" r="12.06"/>
<circle class="st2" cx="100" cy="455.78" r="12.06"/>
<circle class="st2" cx="100" cy="485.84" r="12.06"/>
<circle class="st1" cx="100" cy="515.9" r="12.06"/>
<circle class="st0" cx="100" cy="545.97" r="12.06"/>
<circle class="st0" cx="136" cy="336.3" r="12.06"/>
<circle class="st0" cx="136" cy="366.36" r="12.06"/>
<circle class="st1" cx="136" cy="396.42" r="12.06"/>
<circle class="st3" cx="136" cy="426.48" r="12.06"/>
<circle class="st3" cx="136" cy="456.55" r="12.06"/>
<circle class="st1" cx="136" cy="486.61" r="12.06"/>
<circle class="st0" cx="136" cy="516.67" r="12.06"/>
<circle class="st0" cx="136" cy="546.73" r="12.06"/>
<circle class="st0" cx="172" cy="335.53" r="12.06"/>
<circle class="st0" cx="172" cy="365.59" r="12.06"/>
<circle class="st0" cx="172" cy="395.66" r="12.06"/>
<circle class="st1" cx="172" cy="425.72" r="12.06"/>
<circle class="st1" cx="172" cy="455.78" r="12.06"/>
<circle class="st0" cx="172" cy="485.84" r="12.06"/>
<circle class="st0" cx="172" cy="515.9" r="12.06"/>
<circle class="st0" cx="172" cy="545.97" r="12.06"/>
<circle class="st0" cx="208" cy="336.3" r="12.06"/>
<circle class="st0" cx="208" cy="366.36" r="12.06"/>
<circle class="st0" cx="208" cy="396.42" r="12.06"/>
<circle class="st1" cx="208" cy="426.48" r="12.06"/>
<circle class="st1" cx="208" cy="456.55" r="12.06"/>
<circle class="st0" cx="208" cy="486.61" r="12.06"/>
<circle class="st0" cx="208" cy="516.67" r="12.06"/>
<circle class="st0" cx="208" cy="546.73" r="12.06"/>
<circle class="st0" cx="244" cy="335.88" r="12.06"/>
<circle class="st0" cx="244" cy="365.94" r="12.06"/>
<circle class="st1" cx="244" cy="396.01" r="12.06"/>
<circle class="st2" cx="244" cy="426.07" r="12.06"/>
<circle class="st2" cx="244" cy="456.13" r="12.06"/>
<circle class="st1" cx="244" cy="486.19" r="12.06"/>
<circle class="st0" cx="244" cy="516.26" r="12.06"/>
<circle class="st0" cx="244" cy="546.32" r="12.06"/>
<circle class="st0" cx="280" cy="335.65" r="12.06"/>
<circle class="st1" cx="280" cy="365.71" r="12.06"/>
<circle class="st3" cx="280" cy="395.77" r="12.06"/>
<circle class="st3" cx="280" cy="425.83" r="12.06"/>
<circle class="st3" cx="280" cy="455.9" r="12.06"/>
<circle class="st3" cx="280" cy="485.96" r="12.06"/>
<circle class="st1" cx="280" cy="516.02" r="12.06"/>
<circle class="st0" cx="280" cy="546.08" r="12.06"/>
<circle class="st0" cx="316" cy="335.88" r="12.06"/>
<circle class="st1" cx="316" cy="365.94" r="12.06"/>
<circle class="st2" cx="316" cy="396.01" r="12.06"/>
<circle class="st2" cx="316" cy="426.07" r="12.06"/>
<circle class="st2" cx="316" cy="456.13" r="12.06"/>
<circle class="st2" cx="316" cy="486.19" r="12.06"/>
<circle class="st1" cx="316" cy="516.26" r="12.06"/>
<circle class="st0" cx="316" cy="546.32" r="12.06"/>
<circle class="st0" cx="352" cy="335.65" r="12.06"/>
<circle class="st0" cx="352" cy="365.71" r="12.06"/>
<circle class="st1" cx="352" cy="395.77" r="12.06"/>
<circle class="st3" cx="352" cy="425.83" r="12.06"/>
<circle class="st3" cx="352" cy="455.9" r="12.06"/>
<circle class="st1" cx="352" cy="485.96" r="12.06"/>
<circle class="st0" cx="352" cy="516.02" r="12.06"/>
<circle class="st0" cx="352" cy="546.08" r="12.06"/>
<circle class="st0" cx="388" cy="335.88" r="12.06"/>
<circle class="st0" cx="388" cy="365.94" r="12.06"/>
<circle class="st0" cx="388" cy="396.01" r="12.06"/>
<circle class="st1" cx="388" cy="426.07" r="12.06"/>
<circle class="st1" cx="388" cy="456.13" r="12.06"/>
<circle class="st0" cx="388" cy="486.19" r="12.06"/>
<circle class="st0" cx="388" cy="516.26" r="12.06"/>
<circle class="st0" cx="388" cy="546.32" r="12.06"/>
<circle class="st0" cx="424" cy="335.65" r="12.06"/>
<circle class="st0" cx="424" cy="365.71" r="12.06"/>
<circle class="st0" cx="424" cy="395.77" r="12.06"/>
<circle class="st1" cx="424" cy="425.83" r="12.06"/>
<circle class="st1" cx="424" cy="455.9" r="12.06"/>
<circle class="st0" cx="424" cy="485.96" r="12.06"/>
<circle class="st0" cx="424" cy="516.02" r="12.06"/>
<circle class="st0" cx="424" cy="546.08" r="12.06"/>
<circle class="st0" cx="460" cy="335.88" r="12.06"/>
<circle class="st0" cx="460" cy="365.94" r="12.06"/>
<circle class="st1" cx="460" cy="396.01" r="12.06"/>
<circle class="st2" cx="460" cy="426.07" r="12.06"/>
<circle class="st2" cx="460" cy="456.13" r="12.06"/>
<circle class="st1" cx="460" cy="486.19" r="12.06"/>
<circle class="st0" cx="460" cy="516.26" r="12.06"/>
<circle class="st0" cx="460" cy="546.32" r="12.06"/>
<circle class="st0" cx="496" cy="335.65" r="12.06"/>
<circle class="st1" cx="496" cy="365.71" r="12.06"/>
<circle class="st3" cx="496" cy="395.77" r="12.06"/>
<circle class="st3" cx="496" cy="425.83" r="12.06"/>
<circle class="st3" cx="496" cy="455.9" r="12.06"/>
<circle class="st3" cx="496" cy="485.96" r="12.06"/>
<circle class="st1" cx="496" cy="516.02" r="12.06"/>
<circle class="st0" cx="496" cy="546.08" r="12.06"/>
</svg>
